<?xml version="1.0" standalone="no"?><!DOCTYPE svg PUBLIC "-//W3C//DTD SVG 1.1//EN" "http://www.w3.org/Graphics/SVG/1.1/DTD/svg11.dtd"><svg t="1529978751960" class="icon" style="" viewBox="0 0 1024 1024" version="1.1" xmlns="http://www.w3.org/2000/svg" p-id="2925" xmlns:xlink="http://www.w3.org/1999/xlink" width="32" height="32"><defs><style type="text/css"></style></defs><path d="M783.515152 446.836364l-43.442425 43.442424-214.109091-212.557576 43.442425-43.442424c24.824242-24.824242 63.612121-24.824242 88.436363 0l125.672728 125.672727c24.824242 23.272727 24.824242 63.612121 0 86.884849zM499.587879 732.315152c-51.2 10.860606-62.060606-13.963636-55.854546-55.854546-52.751515-7.757576-91.539394-31.030303-100.848485-89.987879l147.39394-142.739394-13.963636-13.963636-150.49697 147.393939c-37.236364 3.10303-46.545455-21.721212-40.339394-57.40606l217.212121-217.212121L558.545455 356.848485l158.254545 158.254545-217.212121 217.212122z m-234.278788 76.024242l-43.442424-43.442424 26.375757-114.812122 131.878788 131.878788-114.812121 26.375758zM512 0C229.624242 0 0 229.624242 0 512s229.624242 512 512 512 512-229.624242 512-512S794.375758 0 512 0z" fill="#26C931" p-id="2926"></path></svg>