<?xml version="1.0" standalone="no"?><!DOCTYPE svg PUBLIC "-//W3C//DTD SVG 1.1//EN" "http://www.w3.org/Graphics/SVG/1.1/DTD/svg11.dtd"><svg t="1529978803683" class="icon" style="" viewBox="0 0 1024 1024" version="1.1" xmlns="http://www.w3.org/2000/svg" p-id="5818" xmlns:xlink="http://www.w3.org/1999/xlink" width="32" height="32"><defs><style type="text/css"></style></defs><path d="M512 58.032c-250.696 0-453.968 203.2-453.968 453.968S261.304 965.968 512 965.968s453.968-203.2 453.968-453.968S762.76 58.032 512 58.032z m-24.592 732.304c-67.448-5.008-100.432-52.88-94.832-111.136 5.72-59.776 86.192-140.304 71.68-191.112-7.152-25.112-114.024-6.4-119.488-23.936-6.704-21.664 73.24-86.12 167.2-71.616 19.256 2.928 65.696 47.16 71.744 71.616 13.6 55.808-17.76 123.592-47.808 167.304-20.944 33.6-30.12 34.8-23.936 71.616 19.448 18.472 31.288 26.928 95.488 23.872-23.744 54.576-99.592 65.112-120.08 63.36z m48.528-421.704a71.68 71.68 0 1 1 71.616-71.68 71.704 71.704 0 0 1-71.616 71.68z" fill="#FF5E70" p-id="5819"></path></svg>