<?xml version="1.0" standalone="no"?><!DOCTYPE svg PUBLIC "-//W3C//DTD SVG 1.1//EN" "http://www.w3.org/Graphics/SVG/1.1/DTD/svg11.dtd"><svg t="1529978775852" class="icon" style="" viewBox="0 0 1024 1024" version="1.1" xmlns="http://www.w3.org/2000/svg" p-id="4172" xmlns:xlink="http://www.w3.org/1999/xlink" width="32" height="32"><defs><style type="text/css"></style></defs><path d="M651.857482 282.147268c-36.484561-24.32304-87.562945-12.16152-109.453682 26.755345-24.32304 36.484561-12.16152 87.562945 26.755345 109.453682 36.484561 21.890736 87.562945 9.729216 109.453682-26.755345 21.890736-36.484561 12.16152-85.130641-26.755345-109.453682" p-id="4173" fill="#d4237a"></path><path d="M661.586698 521.802185c-31.619952 9.729216-60.807601 9.729216-92.427553 2.432304-4.864608-2.432304-7.296912 0-12.16152 4.864608l-43.781473 72.969122c0 2.432304-2.432304 2.432304-4.864608 4.864608 9.729216 4.864608 17.026128 9.729216 24.32304 14.593824 19.458432 12.16152 26.755344 36.484561 19.458433 55.942993-7.296912 21.890736-29.187648 34.052257-51.078385 31.619952-7.296912 0-14.593824-4.864608-21.890737-7.296912-7.296912-2.432304-14.593824-9.729216-21.890736-12.16152-4.864608 7.296912-9.729216 14.593824-14.593824 24.32304 7.296912 4.864608 17.026128 9.729216 24.32304 14.593825 17.026128 12.16152 24.32304 26.755344 21.890737 48.64608-2.432304 19.458432-14.593824 34.052257-34.052257 38.916865-14.593824 4.864608-26.755344 0-41.349169-7.296912l-21.890736-14.593824c-2.432304 2.432304-2.432304 4.864608-4.864608 7.296912-14.593824 24.32304-43.781473 31.619952-65.672209 17.026128-24.32304-14.593824-29.187648-43.781473-14.593824-68.104513l21.890736-36.484561c48.646081-77.833729 97.292162-158.099762 145.938242-235.933491 2.432304-4.864608 2.432304-7.296912 0-12.161521-41.349169-51.078385-51.078385-109.453682-31.619952-172.693586 26.755344-80.266033 116.750594-131.344418 197.016627-114.31829 82.698337 17.026128 138.64133 80.266033 143.505938 165.396674 7.296912 80.266033-46.213777 155.667458-121.615202 177.558195M510.783848 1.289121C228.63658 1.289121 0 229.925701 0 512.072969s228.63658 510.783848 510.783848 510.783848 510.783848-228.63658 510.783848-510.783848c0-279.714964-228.63658-510.783848-510.783848-510.783848" p-id="4174" fill="#d4237a"></path></svg>