<?xml version="1.0" standalone="no"?><!DOCTYPE svg PUBLIC "-//W3C//DTD SVG 1.1//EN" "http://www.w3.org/Graphics/SVG/1.1/DTD/svg11.dtd"><svg t="1529978732337" class="icon" style="" viewBox="0 0 1024 1024" version="1.1" xmlns="http://www.w3.org/2000/svg" p-id="2666" xmlns:xlink="http://www.w3.org/1999/xlink" width="32" height="32"><defs><style type="text/css"></style></defs><path d="M512 81.491864C273.97078 81.491864 81.06616 274.396484 81.06616 512.425704c0 238.02922 193.02625 430.93384 430.93384 430.93384 238.02922 0 430.93384-193.02625 430.93384-430.93384C942.93384 274.396484 750.02922 81.491864 512 81.491864z m246.300036 216.500772l-62.882528 62.882527 48.4086 48.4086c8.514075 8.514075 8.514075 22.136596 0 30.529041-4.257038 4.257038-9.730372 6.324742-15.325336 6.324742s-11.068298-2.067704-15.325335-6.324742L664.766837 391.525834l-48.651859 48.651859c26.880152 34.056301 43.056895 77.113196 43.056895 123.697352 0 110.19646-89.64105 199.95914-199.95914 199.95914-110.19646 0-199.83751-89.76268-199.83751-199.95914 0-110.19646 89.64105-199.95914 199.95914-199.95914 48.043711 0 92.073643 17.028151 126.616463 45.367858l48.408599-48.4086-48.408599-48.408599c-8.514075-8.514075-8.514075-22.136596 0-30.650671s22.136596-8.514075 30.650671 0l48.408599 48.408599 62.882528-62.882527c8.514075-8.514075 22.136596-8.514075 30.650671 0 8.149186 8.514075 8.149186 22.258225-0.243259 30.650671z m0 0" fill="#FA8CEC" p-id="2667"></path><path d="M459.212733 407.216059c-86.35705 0-156.658986 70.180306-156.658986 156.658986S372.855684 720.53403 459.212733 720.53403c86.35705 0 156.658986-70.180306 156.658986-156.658985S545.569783 407.216059 459.212733 407.216059z m0 0" fill="#FA8CEC" p-id="2668"></path></svg>