<?xml version="1.0" standalone="no"?><!DOCTYPE svg PUBLIC "-//W3C//DTD SVG 1.1//EN" "http://www.w3.org/Graphics/SVG/1.1/DTD/svg11.dtd"><svg t="1529979141599" class="icon" style="" viewBox="0 0 1024 1024" version="1.1" xmlns="http://www.w3.org/2000/svg" p-id="7857" xmlns:xlink="http://www.w3.org/1999/xlink" width="32" height="32"><defs><style type="text/css"></style></defs><path d="M512 128c212.0704 0 384 171.9296 384 384S724.0704 896 512 896 128 724.0704 128 512 299.9296 128 512 128z" fill="#5081C2" p-id="7858"></path><path d="M617.0624 733.866667H406.9376a40.021333 40.021333 0 0 1-40.004267-39.816534V329.949867A40.0384 40.0384 0 0 1 406.9376 290.133333h210.1248a40.0384 40.0384 0 0 1 40.004267 39.816534v364.100266A40.0384 40.0384 0 0 1 617.0624 733.866667zM512 716.8a25.6 25.6 0 1 0-0.017067-51.217067A25.6 25.6 0 0 0 512 716.8z m33.0752-393.216h-68.283733c-4.4032 0-7.970133 4.642133-7.970134 9.045333 0 4.420267 3.566933 8.4992 7.970134 8.4992h68.283733c4.420267 0 8.0384-4.078933 8.0384-8.4992s-3.618133-9.045333-8.0384-9.045333z m75.434667 52.292267H399.752533l1.536 271.496533 219.989334 0.768-0.768-272.264533z" fill="#FFFFFF" p-id="7859"></path></svg>