<?xml version="1.0" standalone="no"?><!DOCTYPE svg PUBLIC "-//W3C//DTD SVG 1.1//EN" "http://www.w3.org/Graphics/SVG/1.1/DTD/svg11.dtd"><svg t="1529654245907" class="icon" style="" viewBox="0 0 1024 1024" version="1.1" xmlns="http://www.w3.org/2000/svg" p-id="4327" xmlns:xlink="http://www.w3.org/1999/xlink" width="32" height="32"><defs><style type="text/css"></style></defs><path d="M510.805802 64.583924c-247.100818 0-447.416076 200.315258-447.416076 447.416076s200.315258 447.416076 447.416076 447.416076 447.416076-200.315258 447.416076-447.416076S757.906619 64.583924 510.805802 64.583924zM510.805802 920.931576c-225.846748 0-408.9326-183.084828-408.9326-408.931576S284.959054 103.0674 510.805802 103.0674s408.931576 183.084828 408.931576 408.9326S736.65255 920.931576 510.805802 920.931576z" p-id="4328"></path><path d="M510.98488 446.910563c-44.418652 0-80.426751 36.008099-80.426751 80.426751s36.008099 80.426751 80.426751 80.426751 80.426751-36.008099 80.426751-80.426751S555.404556 446.910563 510.98488 446.910563zM510.98488 590.307484c-34.777061 0-62.97017-28.192086-62.97017-62.97017s28.192086-62.97017 62.97017-62.97017 62.97017 28.192086 62.97017 62.97017S545.762965 590.307484 510.98488 590.307484z" p-id="4329"></path><path d="M510.985904 411.267784c-64.103993 0-116.070552 51.966559-116.070552 116.070552s51.966559 116.070552 116.070552 116.070552 116.070552-51.966559 116.070552-116.070552S575.089897 411.267784 510.985904 411.267784zM510.985904 625.435539c-54.177923 0-98.098225-43.920302-98.098225-98.098225s43.920302-98.098225 98.098225-98.098225 98.098225 43.920302 98.098225 98.098225S565.163827 625.435539 510.985904 625.435539z" p-id="4330"></path><path d="M699.844226 392.131959l-75.1864 0.287549-45.217854-45.14213c-5.480828-4.428869-11.496845-7.402597-18.311041-8.207939l-99.209536-0.011256c-8.162914 1.334391-15.400758 4.696975-20.87033 10.704806l-42.664705 42.367947-76.616982 0c-18.826787 0-34.229592 15.403828-34.229592 34.229592l0 218.209814c0 18.826787 15.403828 34.229592 34.229592 34.229592l378.076848 0c18.826787 0 34.229592-15.403828 34.229592-34.229592l0-218.209814C734.073818 407.534763 718.66999 392.131959 699.844226 392.131959zM716.16289 644.013663c0 9.130961-7.471159 16.60212-16.60212 16.60212L322.04981 660.615782c-9.130961 0-16.60212-7.471159-16.60212-16.60212L305.44769 426.918229c0-9.130961 7.471159-16.60212 16.60212-16.60212l59.95858 0 23.793916 0.00921c0 0 49.713238-49.65798 53.107545-51.822272 3.736091-1.352811 99.19214-3.27151 105.58678-0.201591 4.466732 3.631714 52.743248 52.023864 52.743248 52.023864l20.595061-0.00921 61.72583 0c9.130961 0 16.60212 7.471159 16.60212 16.60212L716.16289 644.013663z" p-id="4331"></path></svg>