<?xml version="1.0" standalone="no"?><!DOCTYPE svg PUBLIC "-//W3C//DTD SVG 1.1//EN" "http://www.w3.org/Graphics/SVG/1.1/DTD/svg11.dtd"><svg t="1529978684408" class="icon" style="" viewBox="0 0 1024 1024" version="1.1" xmlns="http://www.w3.org/2000/svg" p-id="1964" xmlns:xlink="http://www.w3.org/1999/xlink" width="32" height="32"><defs><style type="text/css"></style></defs><path d="M512 0A512 512 0 1 0 1024 512 512 512 0 0 0 512 0z m0 179.541333a154.282667 154.282667 0 1 1-157.696 154.282667 154.282667 154.282667 0 0 1 154.282667-154.282667z m-273.066667 614.4A292.181333 292.181333 0 0 1 409.6 496.981333l101.034667 165.888L614.4 500.394667a300.373333 300.373333 0 0 1 170.666667 291.498666 729.088 729.088 0 0 1-546.133334 0z" fill="#58BCB2" p-id="1965"></path></svg>